<mxfile host="app.diagrams.net" agent="Mozilla/5.0 (Macintosh; Intel Mac OS X 10_15_7) AppleWebKit/605.1.15 (KHTML, like Gecko) Version/18.1 Safari/605.1.15" version="24.8.4">
  <diagram id="G_HHuSyFxBcpwqOR03Jf" name="Page-1">
    <mxGraphModel dx="872" dy="588" grid="1" gridSize="10" guides="1" tooltips="1" connect="1" arrows="1" fold="1" page="1" pageScale="1" pageWidth="850" pageHeight="1100" math="0" shadow="0">
      <root>
        <mxCell id="0" />
        <mxCell id="1" parent="0" />
        <mxCell id="50" style="edgeStyle=orthogonalEdgeStyle;rounded=0;orthogonalLoop=1;jettySize=auto;html=1;exitX=1;exitY=0.75;exitDx=0;exitDy=0;entryX=0.5;entryY=0;entryDx=0;entryDy=0;" parent="1" source="2" target="6" edge="1">
          <mxGeometry relative="1" as="geometry">
            <Array as="points">
              <mxPoint x="205" y="270" />
              <mxPoint x="225" y="270" />
              <mxPoint x="225" y="408" />
              <mxPoint x="135" y="408" />
            </Array>
          </mxGeometry>
        </mxCell>
        <mxCell id="2" value="&lt;h5 style=&quot;font-size: 14px;&quot;&gt;&lt;span style=&quot;font-weight: normal;&quot;&gt;&lt;font style=&quot;font-size: 14px;&quot;&gt;id: int&lt;/font&gt;&lt;/span&gt;&lt;/h5&gt;&lt;h5 style=&quot;font-size: 14px;&quot;&gt;&lt;font style=&quot;font-size: 14px;&quot;&gt;&lt;span style=&quot;font-weight: normal;&quot;&gt;source&lt;/span&gt;:&amp;nbsp;&lt;span style=&quot;font-weight: normal; background-color: rgb(255, 255, 255); color: rgb(8, 8, 8);&quot;&gt;Station&lt;/span&gt;&lt;/font&gt;&lt;/h5&gt;&lt;h5 style=&quot;font-size: 14px;&quot;&gt;&lt;span style=&quot;font-weight: normal;&quot;&gt;&lt;font style=&quot;font-size: 14px;&quot;&gt;destination: Station&lt;/font&gt;&lt;/span&gt;&lt;/h5&gt;&lt;h5 style=&quot;font-size: 14px;&quot;&gt;&lt;span style=&quot;font-weight: normal;&quot;&gt;&lt;font style=&quot;font-size: 14px;&quot;&gt;distance: int&lt;/font&gt;&lt;/span&gt;&lt;/h5&gt;" style="whiteSpace=wrap;html=1;aspect=fixed;align=left;" parent="1" vertex="1">
          <mxGeometry x="65" y="220" width="140" height="140" as="geometry" />
        </mxCell>
        <mxCell id="3" value="&lt;div style=&quot;background-color:#ffffff;color:#080808&quot;&gt;&lt;pre style=&quot;&quot;&gt;&lt;span style=&quot;color: rgb(0, 0, 0);&quot;&gt;&lt;font size=&quot;1&quot; face=&quot;Helvetica&quot; style=&quot;&quot;&gt;&lt;b style=&quot;font-size: 14px;&quot;&gt;Route&lt;/b&gt;&lt;/font&gt;&lt;/span&gt;&lt;/pre&gt;&lt;/div&gt;" style="rounded=0;whiteSpace=wrap;html=1;" parent="1" vertex="1">
          <mxGeometry x="65" y="190" width="140" height="30" as="geometry" />
        </mxCell>
        <mxCell id="4" value="&lt;div style=&quot;background-color: rgb(255, 255, 255); color: rgb(8, 8, 8); font-size: 14px;&quot;&gt;&lt;pre style=&quot;&quot;&gt;&lt;font style=&quot;font-size: 14px;&quot; face=&quot;Helvetica&quot;&gt;id: int&lt;/font&gt;&lt;/pre&gt;&lt;pre style=&quot;&quot;&gt;&lt;font style=&quot;font-size: 14px;&quot; face=&quot;Helvetica&quot;&gt;name:str&lt;/font&gt;&lt;/pre&gt;&lt;pre style=&quot;&quot;&gt;&lt;div style=&quot;&quot;&gt;&lt;pre style=&quot;&quot;&gt;&lt;font style=&quot;font-size: 14px;&quot; face=&quot;Helvetica&quot;&gt;latitude: float&lt;/font&gt;&lt;/pre&gt;&lt;pre style=&quot;&quot;&gt;&lt;div style=&quot;&quot;&gt;&lt;pre style=&quot;&quot;&gt;&lt;font style=&quot;font-size: 14px;&quot; face=&quot;Helvetica&quot;&gt;longitude: float&lt;/font&gt;&lt;/pre&gt;&lt;/div&gt;&lt;/pre&gt;&lt;/div&gt;&lt;/pre&gt;&lt;/div&gt;" style="whiteSpace=wrap;html=1;aspect=fixed;fontFamily=Times New Roman;fontSize=12;align=left;" parent="1" vertex="1">
          <mxGeometry x="70" y="515" width="130" height="130" as="geometry" />
        </mxCell>
        <mxCell id="6" value="&lt;div style=&quot;background-color:#ffffff;color:#080808&quot;&gt;&lt;pre style=&quot;font-family:&#39;JetBrains Mono&#39;,monospace;font-size:9,8pt;&quot;&gt;&lt;span style=&quot;color:#000000;&quot;&gt;&lt;font style=&quot;font-size: 14px;&quot;&gt;&lt;b&gt;Station&lt;/b&gt;&lt;/font&gt;&lt;/span&gt;&lt;/pre&gt;&lt;/div&gt;" style="rounded=0;whiteSpace=wrap;html=1;fontFamily=Times New Roman;fontSize=12;" parent="1" vertex="1">
          <mxGeometry x="70" y="455" width="130" height="60" as="geometry" />
        </mxCell>
        <mxCell id="7" value="&lt;div style=&quot;background-color: rgb(255, 255, 255); color: rgb(8, 8, 8); font-size: 14px;&quot;&gt;&lt;pre style=&quot;&quot;&gt;&lt;font style=&quot;font-size: 14px;&quot; face=&quot;Helvetica&quot;&gt;id: int&lt;/font&gt;&lt;/pre&gt;&lt;pre style=&quot;&quot;&gt;&lt;font style=&quot;font-size: 14px;&quot; face=&quot;Helvetica&quot;&gt;first_name: str&lt;/font&gt;&lt;/pre&gt;&lt;pre style=&quot;&quot;&gt;&lt;div style=&quot;&quot;&gt;&lt;pre style=&quot;&quot;&gt;&lt;font style=&quot;font-size: 14px;&quot; face=&quot;Helvetica&quot;&gt;last_name: str&lt;/font&gt;&lt;/pre&gt;&lt;/div&gt;&lt;/pre&gt;&lt;/div&gt;" style="whiteSpace=wrap;html=1;aspect=fixed;fontFamily=Times New Roman;fontSize=12;align=left;" parent="1" vertex="1">
          <mxGeometry x="390" y="250" width="100" height="100" as="geometry" />
        </mxCell>
        <mxCell id="8" value="&lt;div style=&quot;background-color:#ffffff;color:#080808&quot;&gt;&lt;pre style=&quot;&quot;&gt;&lt;span style=&quot;color: rgb(0, 0, 0);&quot;&gt;&lt;font face=&quot;Helvetica&quot; style=&quot;font-size: 14px;&quot;&gt;&lt;b style=&quot;&quot;&gt;Crew&lt;/b&gt;&lt;/font&gt;&lt;/span&gt;&lt;/pre&gt;&lt;/div&gt;" style="rounded=0;whiteSpace=wrap;html=1;fontFamily=Times New Roman;fontSize=12;" parent="1" vertex="1">
          <mxGeometry x="390" y="190" width="100" height="60" as="geometry" />
        </mxCell>
        <mxCell id="30" style="edgeStyle=orthogonalEdgeStyle;rounded=0;orthogonalLoop=1;jettySize=auto;html=1;exitX=0;exitY=0.25;exitDx=0;exitDy=0;fontFamily=Helvetica;fontSize=14;exitPerimeter=0;" parent="1" source="9" edge="1">
          <mxGeometry relative="1" as="geometry">
            <mxPoint x="354" y="555" as="sourcePoint" />
            <mxPoint x="204" y="230" as="targetPoint" />
            <Array as="points">
              <mxPoint x="282" y="555" />
              <mxPoint x="282" y="230" />
            </Array>
          </mxGeometry>
        </mxCell>
        <mxCell id="47" style="edgeStyle=orthogonalEdgeStyle;rounded=0;orthogonalLoop=1;jettySize=auto;html=1;exitX=1;exitY=0.25;exitDx=0;exitDy=0;entryX=-0.022;entryY=0.065;entryDx=0;entryDy=0;entryPerimeter=0;" parent="1" source="9" target="18" edge="1">
          <mxGeometry relative="1" as="geometry" />
        </mxCell>
        <mxCell id="9" value="&lt;div style=&quot;background-color: rgb(255, 255, 255); color: rgb(8, 8, 8); font-size: 14px;&quot;&gt;&lt;pre style=&quot;&quot;&gt;&lt;font style=&quot;font-size: 14px;&quot; face=&quot;Helvetica&quot;&gt;id: int&lt;/font&gt;&lt;/pre&gt;&lt;pre style=&quot;&quot;&gt;&lt;font style=&quot;font-size: 14px;&quot; face=&quot;Helvetica&quot;&gt;route: Route&lt;/font&gt;&lt;/pre&gt;&lt;pre style=&quot;&quot;&gt;&lt;div style=&quot;&quot;&gt;&lt;pre style=&quot;&quot;&gt;&lt;font style=&quot;font-size: 14px;&quot; face=&quot;Helvetica&quot;&gt;train: Train&lt;/font&gt;&lt;/pre&gt;&lt;pre style=&quot;&quot;&gt;&lt;div style=&quot;&quot;&gt;&lt;pre style=&quot;&quot;&gt;&lt;font style=&quot;font-size: 14px;&quot; face=&quot;Helvetica&quot;&gt;departure_time: datetime&lt;/font&gt;&lt;/pre&gt;&lt;pre style=&quot;&quot;&gt;&lt;div style=&quot;&quot;&gt;&lt;pre style=&quot;&quot;&gt;&lt;font style=&quot;font-size: 14px;&quot; face=&quot;Helvetica&quot;&gt;arrival_time: datetime&lt;/font&gt;&lt;/pre&gt;&lt;pre style=&quot;&quot;&gt;&lt;font style=&quot;font-size: 14px;&quot; face=&quot;Helvetica&quot;&gt;crews: Crew&lt;/font&gt;&lt;/pre&gt;&lt;/div&gt;&lt;/pre&gt;&lt;/div&gt;&lt;/pre&gt;&lt;/div&gt;&lt;/pre&gt;&lt;/div&gt;" style="whiteSpace=wrap;html=1;aspect=fixed;fontFamily=Times New Roman;fontSize=12;align=left;" parent="1" vertex="1">
          <mxGeometry x="350" y="510" width="180" height="180" as="geometry" />
        </mxCell>
        <mxCell id="10" value="&lt;div style=&quot;background-color:#ffffff;color:#080808&quot;&gt;&lt;pre style=&quot;&quot;&gt;&lt;span style=&quot;color: rgb(0, 0, 0);&quot;&gt;&lt;font style=&quot;font-size: 14px;&quot; face=&quot;Helvetica&quot;&gt;&lt;b&gt;Journey(Trip)&lt;/b&gt;&lt;/font&gt;&lt;/span&gt;&lt;/pre&gt;&lt;/div&gt;" style="rounded=0;whiteSpace=wrap;html=1;fontFamily=Times New Roman;fontSize=12;" parent="1" vertex="1">
          <mxGeometry x="350" y="470" width="180" height="40" as="geometry" />
        </mxCell>
        <mxCell id="17" style="edgeStyle=orthogonalEdgeStyle;rounded=0;orthogonalLoop=1;jettySize=auto;html=1;exitX=0.5;exitY=1;exitDx=0;exitDy=0;fontFamily=Times New Roman;fontSize=12;" parent="1" source="13" edge="1">
          <mxGeometry relative="1" as="geometry">
            <mxPoint x="430" y="1000" as="targetPoint" />
          </mxGeometry>
        </mxCell>
        <mxCell id="40" style="edgeStyle=orthogonalEdgeStyle;rounded=0;orthogonalLoop=1;jettySize=auto;html=1;entryX=0;entryY=0.25;entryDx=0;entryDy=0;exitX=1;exitY=0.875;exitDx=0;exitDy=0;exitPerimeter=0;" parent="1" source="13" target="22" edge="1">
          <mxGeometry relative="1" as="geometry">
            <Array as="points">
              <mxPoint x="585" y="1010" />
              <mxPoint x="585" y="913" />
            </Array>
          </mxGeometry>
        </mxCell>
        <mxCell id="13" value="&lt;font style=&quot;font-size: 14px;&quot; face=&quot;Helvetica&quot;&gt;id: int&lt;br&gt;&lt;/font&gt;&lt;div style=&quot;background-color: rgb(255, 255, 255); color: rgb(8, 8, 8); font-size: 14px;&quot;&gt;&lt;pre style=&quot;&quot;&gt;&lt;font style=&quot;font-size: 14px;&quot; face=&quot;Helvetica&quot;&gt;cargo: int&lt;/font&gt;&lt;/pre&gt;&lt;pre style=&quot;&quot;&gt;&lt;div style=&quot;&quot;&gt;&lt;pre style=&quot;&quot;&gt;&lt;font style=&quot;font-size: 14px;&quot; face=&quot;Helvetica&quot;&gt;seat: int&lt;/font&gt;&lt;/pre&gt;&lt;pre style=&quot;&quot;&gt;&lt;div style=&quot;&quot;&gt;&lt;pre style=&quot;&quot;&gt;&lt;font style=&quot;font-size: 14px;&quot; face=&quot;Helvetica&quot;&gt;journey: Journey&lt;/font&gt;&lt;/pre&gt;&lt;pre style=&quot;&quot;&gt;&lt;div style=&quot;&quot;&gt;&lt;pre style=&quot;&quot;&gt;&lt;font style=&quot;font-size: 14px;&quot; face=&quot;Helvetica&quot;&gt;order: Order&lt;/font&gt;&lt;/pre&gt;&lt;/div&gt;&lt;/pre&gt;&lt;/div&gt;&lt;/pre&gt;&lt;/div&gt;&lt;/pre&gt;&lt;/div&gt;" style="whiteSpace=wrap;html=1;aspect=fixed;fontFamily=Times New Roman;fontSize=12;align=left;" parent="1" vertex="1">
          <mxGeometry x="370" y="870" width="160" height="160" as="geometry" />
        </mxCell>
        <mxCell id="15" value="&lt;div style=&quot;background-color:#ffffff;color:#080808&quot;&gt;&lt;pre style=&quot;&quot;&gt;&lt;span style=&quot;color: rgb(0, 0, 0);&quot;&gt;&lt;font style=&quot;font-size: 14px;&quot; face=&quot;Helvetica&quot;&gt;&lt;b&gt;Ticket&lt;/b&gt;&lt;/font&gt;&lt;/span&gt;&lt;/pre&gt;&lt;/div&gt;" style="rounded=0;whiteSpace=wrap;html=1;fontFamily=Times New Roman;fontSize=12;" parent="1" vertex="1">
          <mxGeometry x="370" y="810" width="160" height="60" as="geometry" />
        </mxCell>
        <mxCell id="43" style="edgeStyle=orthogonalEdgeStyle;rounded=0;orthogonalLoop=1;jettySize=auto;html=1;exitX=1;exitY=0.5;exitDx=0;exitDy=0;entryX=1;entryY=0.25;entryDx=0;entryDy=0;" parent="1" source="18" target="20" edge="1">
          <mxGeometry relative="1" as="geometry" />
        </mxCell>
        <mxCell id="18" value="&lt;font style=&quot;font-size: 14px;&quot; face=&quot;Helvetica&quot;&gt;id: int&lt;br&gt;&lt;/font&gt;&lt;div style=&quot;background-color: rgb(255, 255, 255); color: rgb(8, 8, 8); font-size: 14px;&quot;&gt;&lt;pre style=&quot;&quot;&gt;&lt;font style=&quot;font-size: 14px;&quot; face=&quot;Helvetica&quot;&gt;name: str&lt;/font&gt;&lt;/pre&gt;&lt;pre style=&quot;&quot;&gt;&lt;div style=&quot;&quot;&gt;&lt;pre style=&quot;&quot;&gt;&lt;font style=&quot;font-size: 14px;&quot; face=&quot;Helvetica&quot;&gt;cargo_num: int&lt;/font&gt;&lt;/pre&gt;&lt;pre style=&quot;&quot;&gt;&lt;div style=&quot;&quot;&gt;&lt;pre style=&quot;&quot;&gt;&lt;font style=&quot;font-size: 14px;&quot; face=&quot;Helvetica&quot;&gt;places_in_cargo: int&lt;/font&gt;&lt;/pre&gt;&lt;pre style=&quot;&quot;&gt;&lt;div style=&quot;&quot;&gt;&lt;pre style=&quot;&quot;&gt;&lt;font style=&quot;font-size: 14px;&quot; face=&quot;Helvetica&quot;&gt;train_type: TrainType&lt;/font&gt;&lt;/pre&gt;&lt;pre style=&quot;&quot;&gt;&lt;div style=&quot;&quot;&gt;&lt;pre style=&quot;&quot;&gt;&lt;font style=&quot;font-size: 14px;&quot; face=&quot;Helvetica&quot;&gt;image: image&lt;/font&gt;&lt;/pre&gt;&lt;/div&gt;&lt;/pre&gt;&lt;/div&gt;&lt;/pre&gt;&lt;/div&gt;&lt;/pre&gt;&lt;/div&gt;&lt;/pre&gt;&lt;/div&gt;" style="whiteSpace=wrap;html=1;aspect=fixed;fontFamily=Times New Roman;fontSize=12;align=left;" parent="1" vertex="1">
          <mxGeometry x="620" y="340" width="190" height="190" as="geometry" />
        </mxCell>
        <mxCell id="19" value="&lt;div style=&quot;background-color:#ffffff;color:#080808&quot;&gt;&lt;pre style=&quot;&quot;&gt;&lt;span style=&quot;color: rgb(0, 0, 0);&quot;&gt;&lt;font style=&quot;font-size: 14px;&quot; face=&quot;Helvetica&quot;&gt;&lt;b&gt;Train&lt;/b&gt;&lt;/font&gt;&lt;/span&gt;&lt;/pre&gt;&lt;/div&gt;" style="rounded=0;whiteSpace=wrap;html=1;fontFamily=Times New Roman;fontSize=12;" parent="1" vertex="1">
          <mxGeometry x="620" y="280" width="190" height="60" as="geometry" />
        </mxCell>
        <mxCell id="20" value="&lt;div style=&quot;background-color: rgb(255, 255, 255); color: rgb(8, 8, 8); font-size: 14px;&quot;&gt;&lt;pre style=&quot;&quot;&gt;&lt;font style=&quot;font-size: 14px;&quot; face=&quot;Helvetica&quot;&gt;id: int&lt;/font&gt;&lt;/pre&gt;&lt;pre style=&quot;&quot;&gt;&lt;font style=&quot;font-size: 14px;&quot; face=&quot;Helvetica&quot;&gt;name: str&lt;/font&gt;&lt;/pre&gt;&lt;/div&gt;" style="whiteSpace=wrap;html=1;aspect=fixed;fontFamily=Times New Roman;fontSize=12;align=left;" parent="1" vertex="1">
          <mxGeometry x="670" y="660" width="90" height="90" as="geometry" />
        </mxCell>
        <mxCell id="21" value="&lt;div style=&quot;background-color:#ffffff;color:#080808&quot;&gt;&lt;pre style=&quot;&quot;&gt;&lt;span style=&quot;color: rgb(0, 0, 0);&quot;&gt;&lt;font style=&quot;font-size: 14px;&quot; face=&quot;Helvetica&quot;&gt;&lt;b&gt;TrainType&lt;/b&gt;&lt;/font&gt;&lt;/span&gt;&lt;/pre&gt;&lt;/div&gt;" style="rounded=0;whiteSpace=wrap;html=1;fontFamily=Times New Roman;fontSize=12;" parent="1" vertex="1">
          <mxGeometry x="670" y="600" width="90" height="60" as="geometry" />
        </mxCell>
        <mxCell id="22" value="&lt;font style=&quot;font-size: 14px;&quot; face=&quot;Helvetica&quot;&gt;id: int&lt;br&gt;&lt;/font&gt;&lt;div style=&quot;background-color: rgb(255, 255, 255); color: rgb(8, 8, 8); font-size: 14px;&quot;&gt;&lt;pre style=&quot;&quot;&gt;&lt;font style=&quot;font-size: 14px;&quot; face=&quot;Helvetica&quot;&gt;created_at: datetime&lt;/font&gt;&lt;/pre&gt;&lt;pre style=&quot;&quot;&gt;&lt;div style=&quot;&quot;&gt;&lt;pre style=&quot;&quot;&gt;&lt;font style=&quot;font-size: 14px;&quot; face=&quot;Helvetica&quot;&gt;user: User (built-in-Django)&lt;/font&gt;&lt;/pre&gt;&lt;/div&gt;&lt;/pre&gt;&lt;/div&gt;" style="whiteSpace=wrap;html=1;aspect=fixed;fontFamily=Times New Roman;fontSize=12;align=left;" parent="1" vertex="1">
          <mxGeometry x="640" y="870" width="170" height="170" as="geometry" />
        </mxCell>
        <mxCell id="23" value="&lt;div style=&quot;background-color:#ffffff;color:#080808&quot;&gt;&lt;pre style=&quot;&quot;&gt;&lt;span style=&quot;color: rgb(0, 0, 0);&quot;&gt;&lt;font style=&quot;font-size: 14px;&quot; face=&quot;Helvetica&quot;&gt;&lt;b&gt;Order&lt;/b&gt;&lt;/font&gt;&lt;/span&gt;&lt;/pre&gt;&lt;/div&gt;" style="rounded=0;whiteSpace=wrap;html=1;fontFamily=Times New Roman;fontSize=12;" parent="1" vertex="1">
          <mxGeometry x="640" y="810" width="170" height="60" as="geometry" />
        </mxCell>
        <mxCell id="31" value="1" style="text;html=1;resizable=0;autosize=1;align=center;verticalAlign=middle;points=[];fillColor=none;strokeColor=none;rounded=0;fontFamily=Helvetica;fontSize=14;" parent="1" vertex="1">
          <mxGeometry x="220" y="200" width="30" height="30" as="geometry" />
        </mxCell>
        <mxCell id="32" value="n" style="text;html=1;resizable=0;autosize=1;align=center;verticalAlign=middle;points=[];fillColor=none;strokeColor=none;rounded=0;fontFamily=Helvetica;fontSize=14;" parent="1" vertex="1">
          <mxGeometry x="300" y="520" width="30" height="30" as="geometry" />
        </mxCell>
        <mxCell id="33" value="" style="endArrow=classic;startArrow=classic;html=1;rounded=0;fontFamily=Helvetica;fontSize=14;entryX=0.5;entryY=1;entryDx=0;entryDy=0;exitX=0.5;exitY=0;exitDx=0;exitDy=0;" parent="1" source="10" target="7" edge="1">
          <mxGeometry width="50" height="50" relative="1" as="geometry">
            <mxPoint x="439.5" y="430" as="sourcePoint" />
            <mxPoint x="439.5" y="370" as="targetPoint" />
          </mxGeometry>
        </mxCell>
        <mxCell id="34" value="n" style="text;html=1;resizable=0;autosize=1;align=center;verticalAlign=middle;points=[];fillColor=none;strokeColor=none;rounded=0;fontFamily=Helvetica;fontSize=14;" parent="1" vertex="1">
          <mxGeometry x="400" y="390" width="30" height="30" as="geometry" />
        </mxCell>
        <mxCell id="35" value="n" style="text;html=1;resizable=0;autosize=1;align=center;verticalAlign=middle;points=[];fillColor=none;strokeColor=none;rounded=0;fontFamily=Helvetica;fontSize=14;" parent="1" vertex="1">
          <mxGeometry x="450" y="390" width="30" height="30" as="geometry" />
        </mxCell>
        <mxCell id="36" value="" style="endArrow=classic;html=1;rounded=0;entryX=0.5;entryY=1;entryDx=0;entryDy=0;exitX=0.438;exitY=0;exitDx=0;exitDy=0;exitPerimeter=0;" parent="1" source="15" target="9" edge="1">
          <mxGeometry width="50" height="50" relative="1" as="geometry">
            <mxPoint x="438" y="800" as="sourcePoint" />
            <mxPoint x="437.5" y="730" as="targetPoint" />
          </mxGeometry>
        </mxCell>
        <mxCell id="37" value="n" style="text;html=1;resizable=0;autosize=1;align=center;verticalAlign=middle;points=[];fillColor=none;strokeColor=none;rounded=0;" parent="1" vertex="1">
          <mxGeometry x="435" y="780" width="30" height="30" as="geometry" />
        </mxCell>
        <mxCell id="38" value="1" style="text;html=1;align=center;verticalAlign=middle;resizable=0;points=[];autosize=1;strokeColor=none;fillColor=none;" parent="1" vertex="1">
          <mxGeometry x="435" y="700" width="30" height="30" as="geometry" />
        </mxCell>
        <mxCell id="41" value="1" style="text;html=1;align=center;verticalAlign=middle;resizable=0;points=[];autosize=1;strokeColor=none;fillColor=none;" parent="1" vertex="1">
          <mxGeometry x="605" y="880" width="30" height="30" as="geometry" />
        </mxCell>
        <mxCell id="42" value="n" style="text;html=1;align=center;verticalAlign=middle;resizable=0;points=[];autosize=1;strokeColor=none;fillColor=none;" parent="1" vertex="1">
          <mxGeometry x="535" y="985" width="30" height="30" as="geometry" />
        </mxCell>
        <mxCell id="44" value="n" style="text;html=1;align=center;verticalAlign=middle;resizable=0;points=[];autosize=1;strokeColor=none;fillColor=none;" parent="1" vertex="1">
          <mxGeometry x="805" y="408" width="30" height="30" as="geometry" />
        </mxCell>
        <mxCell id="45" value="1" style="text;html=1;align=center;verticalAlign=middle;resizable=0;points=[];autosize=1;strokeColor=none;fillColor=none;" parent="1" vertex="1">
          <mxGeometry x="765" y="682" width="30" height="30" as="geometry" />
        </mxCell>
        <mxCell id="48" value="1" style="text;html=1;align=center;verticalAlign=middle;resizable=0;points=[];autosize=1;strokeColor=none;fillColor=none;" parent="1" vertex="1">
          <mxGeometry x="575" y="320" width="30" height="30" as="geometry" />
        </mxCell>
        <mxCell id="49" value="n" style="text;html=1;align=center;verticalAlign=middle;resizable=0;points=[];autosize=1;strokeColor=none;fillColor=none;" parent="1" vertex="1">
          <mxGeometry x="535" y="553" width="30" height="30" as="geometry" />
        </mxCell>
        <mxCell id="54" value="" style="endArrow=none;html=1;rounded=0;exitX=0.964;exitY=0.643;exitDx=0;exitDy=0;exitPerimeter=0;" parent="1" edge="1">
          <mxGeometry width="50" height="50" relative="1" as="geometry">
            <mxPoint x="204.96000000000004" y="310.02" as="sourcePoint" />
            <mxPoint x="225" y="310" as="targetPoint" />
          </mxGeometry>
        </mxCell>
        <mxCell id="57" value="" style="endArrow=none;html=1;rounded=0;" parent="1" edge="1">
          <mxGeometry width="50" height="50" relative="1" as="geometry">
            <mxPoint x="135" y="422.58" as="sourcePoint" />
            <mxPoint x="225" y="423" as="targetPoint" />
          </mxGeometry>
        </mxCell>
        <mxCell id="58" value="" style="endArrow=none;html=1;rounded=0;" parent="1" edge="1">
          <mxGeometry width="50" height="50" relative="1" as="geometry">
            <mxPoint x="225" y="424" as="sourcePoint" />
            <mxPoint x="225" y="402" as="targetPoint" />
          </mxGeometry>
        </mxCell>
        <mxCell id="59" value="n" style="text;html=1;align=center;verticalAlign=middle;resizable=0;points=[];autosize=1;strokeColor=none;fillColor=none;" parent="1" vertex="1">
          <mxGeometry x="225" y="295" width="30" height="30" as="geometry" />
        </mxCell>
        <mxCell id="60" value="1" style="text;html=1;align=center;verticalAlign=middle;resizable=0;points=[];autosize=1;strokeColor=none;fillColor=none;" parent="1" vertex="1">
          <mxGeometry x="105" y="425" width="30" height="30" as="geometry" />
        </mxCell>
        <mxCell id="63" value="Django Rest Framework/API&amp;nbsp; &lt;br&gt;Train Station API Service" style="text;html=1;align=center;verticalAlign=middle;resizable=0;points=[];autosize=1;strokeColor=none;fillColor=none;fontSize=25;" parent="1" vertex="1">
          <mxGeometry x="250" y="50" width="350" height="70" as="geometry" />
        </mxCell>
      </root>
    </mxGraphModel>
  </diagram>
</mxfile>
